<?xml version="1.0" encoding="UTF-8" ?>
<!DOCTYPE svg PUBLIC "-//W3C//DTD SVG 1.1//EN" "http://www.w3.org/Graphics/SVG/1.1/DTD/svg11.dtd">
<svg width="256pt" height="256pt" viewBox="0 0 256 256" version="1.1" xmlns="http://www.w3.org/2000/svg">
<g id="#000000ff">
<path fill="#000000" opacity="1.00" d=" M 165.94 4.69 C 166.83 4.67 167.73 4.65 168.64 4.63 C 178.90 10.42 189.31 16.64 196.76 25.99 C 202.91 32.89 208.08 40.69 211.69 49.21 C 213.80 53.95 216.37 58.73 216.49 64.05 C 216.44 66.82 217.86 69.27 218.62 71.86 C 219.55 74.35 219.26 77.06 219.47 79.67 C 220.20 81.23 220.50 82.93 220.61 84.64 C 220.12 86.00 219.69 87.37 219.31 88.76 C 220.18 90.67 220.56 92.74 220.72 94.82 C 219.07 96.87 217.56 99.03 216.06 101.18 C 216.90 101.99 217.74 102.80 218.59 103.62 C 215.42 115.29 210.62 126.65 203.57 136.54 C 200.30 141.66 195.38 145.40 191.95 150.41 C 191.17 150.48 189.60 150.62 188.81 150.69 C 188.57 148.95 188.32 147.23 188.03 145.50 C 187.66 147.36 187.29 149.23 186.84 151.07 C 186.64 152.83 187.20 155.17 185.33 156.22 C 180.25 159.98 174.71 163.11 169.09 166.01 C 162.14 169.11 154.91 171.57 147.60 173.67 C 148.96 180.02 147.39 186.43 147.83 192.83 C 148.07 202.36 145.50 211.59 144.49 221.00 C 142.76 228.57 142.03 236.31 141.34 244.03 C 141.15 246.67 140.38 249.23 139.30 251.64 C 138.93 250.74 138.20 248.93 137.83 248.03 C 134.82 234.62 134.97 220.74 131.94 207.33 C 131.55 203.53 130.98 199.76 130.59 195.96 C 130.24 193.12 133.45 190.66 131.84 187.87 C 130.20 183.87 130.71 179.49 130.72 175.28 C 128.60 175.25 126.49 175.23 124.37 175.21 C 123.92 179.97 124.79 184.81 123.64 189.50 C 123.15 191.31 123.61 193.15 123.91 194.94 C 123.78 198.93 124.00 202.95 123.20 206.89 C 122.19 211.89 120.63 216.82 120.46 221.94 C 120.19 226.99 118.67 231.88 118.46 236.94 C 118.25 242.16 117.68 247.44 115.91 252.39 C 114.18 249.81 114.07 246.66 113.66 243.68 C 113.11 239.43 111.77 235.31 111.54 231.02 C 111.21 223.62 109.49 216.37 109.00 208.98 C 107.85 203.54 106.97 198.03 107.22 192.44 C 107.81 192.41 109.00 192.34 109.59 192.31 C 108.66 191.02 107.39 189.80 107.39 188.08 C 106.49 183.06 106.92 177.94 106.69 172.87 C 103.15 171.96 99.54 171.23 96.17 169.80 C 95.66 168.37 95.41 166.87 95.09 165.39 C 92.46 165.52 89.87 166.39 87.23 166.18 C 81.05 163.47 75.83 159.10 69.95 155.86 C 68.88 153.58 67.80 151.30 66.56 149.11 C 66.94 147.92 67.33 146.74 67.71 145.56 C 66.67 146.78 65.98 148.85 64.00 148.69 C 59.22 146.06 55.94 141.54 52.53 137.42 C 49.29 133.32 45.72 129.17 44.35 124.01 C 44.16 122.24 46.39 121.72 47.35 120.61 C 44.34 120.99 41.23 119.84 40.06 116.85 C 35.34 106.14 36.30 94.11 34.37 82.78 C 34.69 82.39 35.33 81.62 35.65 81.23 C 34.48 70.99 39.38 61.65 41.75 52.00 C 42.12 51.55 42.86 50.66 43.22 50.21 C 43.75 47.97 44.40 45.71 45.83 43.85 C 47.59 41.44 48.35 38.42 50.41 36.23 C 53.63 32.69 55.81 28.37 58.92 24.74 C 59.48 24.60 60.59 24.30 61.15 24.15 C 61.31 23.60 61.62 22.48 61.78 21.92 C 65.10 19.13 68.22 15.94 72.25 14.16 C 77.49 9.56 83.79 5.09 91.13 5.58 C 90.56 9.16 86.88 10.29 84.14 11.82 C 71.67 18.23 61.44 28.94 55.82 41.81 C 54.06 45.90 52.11 49.93 50.90 54.24 C 49.00 58.58 49.30 63.42 48.26 67.98 C 47.05 72.28 48.80 76.64 48.21 81.01 C 48.36 84.15 49.02 87.42 47.42 90.33 C 46.71 90.45 45.30 90.68 44.59 90.80 C 46.53 91.42 48.48 92.03 50.42 92.66 C 50.45 94.06 50.49 95.47 50.53 96.87 C 54.67 104.94 57.62 113.68 63.05 121.03 C 64.87 123.15 66.84 125.14 68.67 127.26 C 70.74 129.95 73.97 131.28 76.41 133.57 C 78.47 135.53 80.67 137.35 82.98 139.03 C 83.96 140.93 85.05 142.78 86.32 144.51 C 88.47 142.34 91.20 144.18 93.56 144.82 C 95.62 146.03 97.80 147.02 100.05 147.85 C 100.57 149.50 101.11 151.14 101.66 152.78 C 103.55 151.87 105.42 150.97 107.31 150.08 C 107.29 148.98 107.27 147.88 107.26 146.77 C 107.71 146.30 108.62 145.36 109.07 144.89 C 108.64 144.43 107.77 143.51 107.34 143.06 C 107.64 134.90 107.51 126.69 105.27 118.78 C 102.29 117.83 99.27 117.03 96.25 116.23 C 96.33 114.98 96.43 113.73 96.54 112.48 C 105.70 113.68 115.10 114.31 124.25 112.70 C 130.18 111.99 136.05 113.79 141.99 113.39 C 148.02 113.44 154.39 111.15 160.18 113.77 C 158.05 117.99 152.11 115.60 149.59 119.45 C 146.20 124.71 148.85 131.37 146.86 137.05 C 147.72 141.23 147.75 145.52 147.65 149.77 C 158.44 148.05 167.98 142.09 176.61 135.68 C 181.54 131.62 186.54 127.47 190.18 122.16 C 192.57 120.06 194.69 117.71 195.93 114.73 C 196.49 114.59 197.63 114.31 198.20 114.16 C 199.57 108.17 202.51 102.70 204.36 96.87 C 205.77 90.29 207.53 83.71 207.60 76.94 C 208.82 76.14 210.05 75.33 211.29 74.54 C 210.40 74.52 208.63 74.47 207.75 74.45 C 207.10 70.66 206.73 66.83 206.54 63.00 C 206.23 56.65 203.14 50.87 202.46 44.59 C 199.20 41.58 198.16 37.10 195.34 33.78 C 191.61 28.83 188.17 23.55 183.19 19.73 C 177.24 15.10 171.50 9.90 164.38 7.14 C 164.77 6.52 165.55 5.30 165.94 4.69 M 126.68 119.59 C 125.79 122.33 124.75 125.06 124.41 127.95 C 123.87 131.89 124.65 135.87 124.21 139.82 C 123.75 143.61 123.61 147.43 123.41 151.25 C 126.06 151.29 128.70 151.32 131.35 151.35 C 131.28 144.57 131.15 137.79 131.31 131.01 C 131.52 127.09 130.38 123.27 129.27 119.55 C 128.41 119.56 127.54 119.58 126.68 119.59 Z" />
</g>
</svg>
